Coordinates
version=1
nRows=8
nColumns=42
inDegrees=yes

Units are S.I. units (second, meters, Newtons, ...)
If the header above contains a line with 'inDegrees', this indicates whether rotational values are in degrees (yes) or radians (no).

endheader
time	pelvis_tilt	pelvis_list	pelvis_rotation	pelvis_tx	pelvis_ty	pelvis_tz	hip_flexion_r	hip_adduction_r	hip_rotation_r	knee_angle_r	knee_adduction_r	knee_angle_r_beta	ankle_angle_r	subtalar_angle_r	mtp_angle_r	hip_flexion_l	hip_adduction_l	hip_rotation_l	knee_angle_l	knee_adduction_l	knee_angle_l_beta	ankle_angle_l	subtalar_angle_l	mtp_angle_l	lumbar_extension	lumbar_bending	lumbar_rotation	arm_flex_r	arm_add_r	arm_rot_r	elbow_flex_r	pro_sup_r	wrist_flex_r	wrist_dev_r	arm_flex_l	arm_add_l	arm_rot_l	elbow_flex_l	pro_sup_l	wrist_flex_l	wrist_dev_l
      1.10000000	      7.78669739	     -2.60868636	     -4.15733949	      0.16522221	      1.00986190	     -0.19846028	    -21.41339581	      0.92819487	     -0.77815466	      4.69974465	     10.40129719	      0.08202602	     11.54879947	      7.63749729	     -7.55456849	     16.33963006	    -12.54921065	    -13.12859019	     22.98874091	     11.23060532	      0.40122922	      0.20854493	    -12.19864577	     -7.55456849	    -20.53255270	     -1.82707195	      9.38484590	     19.33437638	    -17.90788319	    -10.54240258	     34.11050076	     90.00000001	      0.00000000	      0.00000000	    -10.77576180	     -9.52608552	    -19.15912637	     12.07607150	     90.00000001	      0.00000000	      0.00000000
      1.11000000	      7.44807324	     -2.97983393	     -4.46438667	      0.17841084	      1.00705704	     -0.19764967	    -21.76582095	      1.21531339	     -0.61673735	      5.02113748	     10.33322517	      0.08763538	     12.00595995	      7.94747466	     -7.55297815	     16.50246198	    -12.90956547	    -13.64966331	     19.64223673	     11.62315179	      0.34282170	      0.39783998	    -10.64924814	     -7.55297815	    -20.21877789	     -1.64395758	      9.76478847	     19.81749822	    -18.40262365	    -10.01387833	     34.99284635	     90.00000001	      0.00000000	      0.00000000	    -11.55949771	     -9.43099578	    -19.55879177	     11.85502869	     90.00000001	      0.00000000	      0.00000000
      1.12000000	      7.25336320	     -3.12922398	     -4.80815161	      0.19193137	      1.00446057	     -0.19712150	    -22.31020895	      1.16888585	     -0.48041635	      5.25306954	     10.36334715	      0.09168336	     12.36903465	      8.30012790	     -7.55079233	     16.40447773	    -12.97947492	    -14.36987335	     16.35039807	     11.96264446	      0.28536828	      0.38031951	     -8.87006698	     -7.55079233	    -20.03289097	     -1.69324925	     10.11280513	     20.18411160	    -18.91888718	     -9.40573053	     35.92633781	     90.00000001	      0.00000000	      0.00000000	    -12.24450102	     -9.32421054	    -20.27651276	     11.61888734	     90.00000001	      0.00000000	      0.00000000
      1.13000000	      6.62986925	     -3.50249421	     -5.05252952	      0.20527537	      1.00128531	     -0.19621820	    -22.31663350	      1.55333085	     -0.31409585	      5.68004309	     10.19206917	      0.09913545	     12.68444894	      8.41009332	     -7.55001604	     16.95394655	    -13.45685762	    -14.80437798	     13.61757716	     12.53085320	      0.23767156	      0.30300208	     -7.09900781	     -7.55001604	    -19.39997764	     -1.48414388	     10.38855840	     20.58986374	    -19.25377285	     -9.07681009	     36.55544496	     90.00000001	      0.00000000	      0.00000000	    -13.04562488	     -9.27683574	    -20.48410437	     11.57734402	     90.00000001	      0.00000000	      0.00000000
      1.14000000	      6.69386495	     -3.57633631	     -5.52002599	      0.21912929	      0.99901840	     -0.19556739	    -23.10068227	      1.31661288	      0.00988280	      6.00096642	     10.26455538	      0.10473662	     12.96931688	      8.73079799	     -7.54808522	     16.49271629	    -13.45406727	    -15.53393090	     10.82334982	     12.86671589	      0.18890309	      0.67179214	     -5.00309106	     -7.54808522	    -19.48560576	     -1.67484270	     10.74218105	     20.87661314	    -19.66601937	     -8.44733648	     37.57883308	     90.00000001	      0.00000000	      0.00000000	    -13.60373859	     -9.18641867	    -21.34598736	     11.24691487	     90.00000001	      0.00000000	      0.00000000
      1.15000000	      6.49137032	     -3.62275698	     -5.88211378	      0.23311864	      0.99643774	     -0.19511663	    -23.53321300	      1.15471563	      0.25630398	      6.46266672	     10.21056999	      0.11279481	     13.22496662	      8.88765649	     -7.54441310	     16.53237994	    -13.52352437	    -16.38459508	      8.83258430	     13.31921509	      0.15415768	      1.07766192	     -2.72575022	     -7.54441310	    -19.25685138	     -1.83238913	     10.98380747	     21.13472661	    -20.01149199	     -8.07283980	     38.27093056	     90.00000001	      0.00000000	      0.00000000	    -14.02604402	     -9.05109182	    -22.67525035	     10.79688165	     90.00000001	      0.00000000	      0.00000000
      1.16000000	      6.11851355	     -3.82056128	     -6.18316783	      0.24702916	      0.99376762	     -0.19438764	    -23.73701584	      1.25415957	      0.57344171	      7.02846121	     10.05763753	      0.12266979	     13.33518505	      8.90736312	     -7.54374273	     16.83274947	    -13.75434926	    -16.59146447	      7.24287436	     13.72986231	      0.12641200	      1.14498456	     -1.36002242	     -7.54374273	    -18.87231919	     -1.83094848	     11.20724200	     21.33583382	    -20.24515929	     -7.80951645	     38.89063559	     90.00000001	      0.00000000	      0.00000000	    -14.63630736	     -9.01153964	    -22.87395958	     10.76125786	     90.00000001	      0.00000000	      0.00000000
      1.17000000	      5.96080937	     -3.81622919	     -6.54229804	      0.26133146	      0.99144100	     -0.19376992	    -24.15736306	      1.06003536	      0.95765273	      7.60006810	      9.93669882	      0.13264621	     13.37806302	      8.88581443	     -7.54318466	     16.87793883	    -13.73142643	    -16.77990196	      6.09384015	     14.03834479	      0.10635757	      1.32729874	     -0.23853821	     -7.54318466	    -18.67264243	     -2.07115286	     11.40285580	     21.42702955	    -20.43433036	     -7.52623254	     39.56325069	     90.00000001	      0.00000000	      0.00000000	    -15.15838035	     -8.98760833	    -23.16392194	     10.66608256	     90.00000001	      0.00000000	      0.00000000
